<?xml version="1.0" encoding="UTF-8"?>
<svg version="1.1" xmlns="http://www.w3.org/2000/svg" width="512" height="512">
<path d="M0 0 C1.66425405 -0.00679667 1.66425405 -0.00679667 3.36212939 -0.01373065 C7.08144296 -0.0263951 10.80061048 -0.02475293 14.51994324 -0.02310181 C17.18600001 -0.02908576 19.85204532 -0.03583439 22.51809692 -0.04345703 C29.00941546 -0.0600543 35.50069768 -0.065566 41.99203566 -0.06668179 C47.26975762 -0.06763286 52.54746761 -0.07174611 57.82518578 -0.07808304 C72.79595972 -0.09569192 87.76670501 -0.10492245 102.73748938 -0.10342209 C103.54419525 -0.10334218 104.35090111 -0.10326227 105.18205261 -0.10317993 C106.39359273 -0.10305729 106.39359273 -0.10305729 107.62960842 -0.10293217 C120.71791242 -0.10211935 133.80610131 -0.12125678 146.89437202 -0.14945666 C160.34063119 -0.17819875 173.78683425 -0.19199623 187.23312491 -0.19026911 C194.7792638 -0.18960567 202.32528202 -0.19507782 209.8713932 -0.21662521 C216.29652008 -0.23485447 222.72147159 -0.23917012 229.14661316 -0.22560637 C232.4227673 -0.21908538 235.69851605 -0.22111004 238.97465134 -0.23631287 C242.53165923 -0.25174895 246.08778646 -0.24246665 249.64477539 -0.22705078 C251.18681986 -0.24248147 251.18681986 -0.24248147 252.76001674 -0.25822389 C261.90592739 -0.17075368 270.2858513 2.89446693 277.01286316 9.26742554 C282.7008999 16.34470628 285.409647 22.92417741 285.38786316 32.07992554 C285.38625183 32.78552612 285.3846405 33.49112671 285.38298035 34.21810913 C285.24555965 40.0773502 284.07139681 44.32916808 281.01286316 49.26742554 C280.43536316 50.31930054 279.85786316 51.37117554 279.26286316 52.45492554 C275.0409025 57.73237636 270.68577332 61.07011166 264.01286316 62.26742554 C264.02174561 63.38003754 264.03062805 64.49264954 264.03977966 65.63897705 C264.12138302 76.19950389 264.18107446 86.75996554 264.22011185 97.32073784 C264.24085702 102.74825201 264.26893157 108.1755087 264.31462097 113.60287476 C264.35855027 118.85490522 264.38209811 124.10669032 264.39237213 129.35889053 C264.39968 131.34805277 264.41394629 133.33720382 264.43578339 135.32625961 C264.74476164 164.67635114 256.82060576 189.95217702 236.01286316 211.26742554 C235.29356628 212.02539429 234.57426941 212.78336304 233.83317566 213.56430054 C229.16321431 218.3838336 224.20173957 222.62814316 218.96598816 226.81820679 C215.70189708 229.52532994 212.60508835 232.36789365 209.51286316 235.26742554 C204.65406985 239.82200359 199.67574084 244.09816713 194.45036316 248.23226929 C191.89020475 250.29969115 191.89020475 250.29969115 189.32536316 253.02133179 C187.01286316 255.26742554 187.01286316 255.26742554 185.01286316 255.26742554 C185.01286316 255.92742554 185.01286316 256.58742554 185.01286316 257.26742554 C185.5581366 257.49301147 186.10341003 257.71859741 186.66520691 257.95101929 C189.71093415 259.65885636 192.06609226 261.93795216 194.57536316 264.32992554 C198.42856208 267.93791553 202.32642327 271.40335489 206.45036316 274.70492554 C211.86780831 279.06549916 216.93412179 283.74252168 222.01286316 288.48617554 C224.36303033 290.67810203 226.75723919 292.8039486 229.20036316 294.89242554 C248.50295525 311.80748528 260.50021388 332.58529686 264.01286316 358.26742554 C264.14799521 361.31027438 264.13944344 364.34848042 264.12638855 367.39389038 C264.12653458 368.29209503 264.1266806 369.19029968 264.12683105 370.11572266 C264.12613714 373.06996111 264.11836921 376.02413567 264.11051941 378.97836304 C264.10865338 381.03245001 264.10723035 383.08653742 264.10623169 385.140625 C264.1024211 390.53613523 264.09260328 395.93161836 264.08152771 401.32711792 C264.07128222 406.83716465 264.06672735 412.34721577 264.06169128 417.85726929 C264.05097969 428.66066658 264.0339208 439.4640438 264.01286316 450.26742554 C265.43888855 450.73233398 265.43888855 450.73233398 266.89372253 451.20663452 C274.68718845 453.85712054 279.20440122 459.08676511 283.01286316 466.26742554 C286.07614292 473.75311942 286.31609718 483.22355765 284.29020691 491.06430054 C283.34895615 493.27452499 282.29336458 495.23715683 281.01286316 497.26742554 C280.66223816 497.88875366 280.31161316 498.51008179 279.95036316 499.15023804 C275.67626521 506.00660351 268.716745 510.22528094 261.01286316 512.26742554 C257.35031447 512.5613952 253.69850723 512.54584471 250.02572632 512.53485107 C248.91622362 512.53938219 247.80672092 512.5439133 246.66359693 512.54858172 C242.94428336 512.56124618 239.22511583 512.559604 235.50578308 512.55795288 C232.83972631 512.56393684 230.17368099 512.57068547 227.50762939 512.57830811 C221.01631085 512.59490537 214.52502864 512.60041707 208.03369065 512.60153286 C202.7559687 512.60248393 197.47825871 512.60659718 192.20054054 512.61293411 C177.2297666 512.630543 162.25902131 512.63977353 147.28823694 512.63827316 C146.48153107 512.63819325 145.67482521 512.63811334 144.84367371 512.63803101 C144.03598029 512.63794924 143.22828688 512.63786748 142.3961179 512.63778324 C129.3078139 512.63697043 116.21962501 512.65610785 103.13135429 512.68430774 C89.68509513 512.71304982 76.23889207 512.72684731 62.79260141 512.72512019 C55.24646252 512.72445675 47.7004443 512.72992889 40.15433311 512.75147629 C33.72920623 512.76970554 27.30425473 512.77402119 20.87911316 512.76045744 C17.60295901 512.75393645 14.32721027 512.75596111 11.05107498 512.77116394 C7.49406709 512.78660002 3.93793986 512.77731773 0.38095093 512.76190186 C-0.64707872 512.77218898 -1.67510836 512.78247611 -2.73429042 512.79307497 C-11.88020107 512.70560475 -20.26012498 509.64038414 -26.98713684 503.26742554 C-32.67517358 496.1901448 -35.38392068 489.61067366 -35.36213684 480.45492554 C-35.35971985 479.39652466 -35.35971985 479.39652466 -35.35725403 478.31674194 C-35.21983334 472.45750088 -34.04567049 468.205683 -30.98713684 463.26742554 C-30.12088684 461.68961304 -30.12088684 461.68961304 -29.23713684 460.07992554 C-25.01517618 454.80247471 -20.660047 451.46473942 -13.98713684 450.26742554 C-13.99601929 449.15481354 -14.00490173 448.04220154 -14.01405334 446.89587402 C-14.0956567 436.33534718 -14.15534815 425.77488553 -14.19438553 415.21411324 C-14.2151307 409.78659906 -14.24320525 404.35934237 -14.28889465 398.93197632 C-14.33282395 393.67994586 -14.35637179 388.42816076 -14.36664581 383.17596054 C-14.37395368 381.1867983 -14.38821998 379.19764725 -14.41005707 377.20859146 C-14.71903532 347.85849993 -6.79487945 322.58267406 14.01286316 301.26742554 C14.73216003 300.50945679 15.45145691 299.75148804 16.19255066 298.97055054 C20.86251201 294.15101747 25.82398675 289.90670792 31.05973816 285.71664429 C34.32382923 283.00952113 37.42063797 280.16695742 40.51286316 277.26742554 C45.37165646 272.71284748 50.34998548 268.43668395 55.57536316 264.30258179 C58.13552157 262.23515992 58.13552157 262.23515992 60.70036316 259.51351929 C63.01286316 257.26742554 63.01286316 257.26742554 65.01286316 257.26742554 C65.01286316 256.60742554 65.01286316 255.94742554 65.01286316 255.26742554 C64.46758972 255.0418396 63.92231628 254.81625366 63.36051941 254.58383179 C60.31479217 252.87599472 57.95963406 250.59689892 55.45036316 248.20492554 C51.59716424 244.59693554 47.69930305 241.13149618 43.57536316 237.82992554 C38.15791801 233.46935191 33.09160453 228.79232939 28.01286316 224.04867554 C25.66269598 221.85674905 23.26848712 219.73090247 20.82536316 217.64242554 C1.52277106 200.7273658 -10.47448756 179.94955421 -13.98713684 154.26742554 C-14.12226889 151.22457669 -14.11371712 148.18637065 -14.10066223 145.14096069 C-14.10080826 144.24275604 -14.10095428 143.34455139 -14.10110474 142.41912842 C-14.10041082 139.46488997 -14.09264289 136.51071541 -14.08479309 133.55648804 C-14.08292706 131.50240107 -14.08150403 129.44831365 -14.08050537 127.39422607 C-14.07669478 121.99871585 -14.06687696 116.60323271 -14.05580139 111.20773315 C-14.0455559 105.69768643 -14.04100103 100.1876353 -14.03596497 94.67758179 C-14.02525337 83.87418449 -14.00819448 73.07080727 -13.98713684 62.26742554 C-14.93782043 61.95748657 -15.88850403 61.64754761 -16.86799622 61.32821655 C-24.66146214 58.67773053 -29.1786749 53.44808597 -32.98713684 46.26742554 C-36.0504166 38.78173165 -36.29037086 29.31129342 -34.26448059 21.47055054 C-33.32322983 19.26032609 -32.26763826 17.29769424 -30.98713684 15.26742554 C-30.63651184 14.64609741 -30.28588684 14.02476929 -29.92463684 13.38461304 C-23.10057762 2.4376847 -12.04210947 -0.03604531 0 0 Z M8.01286316 64.26742554 C2.19210777 137.03880128 2.19210777 137.03880128 31.01286316 196.26742554 C31.66255066 196.95707397 32.31223816 197.64672241 32.98161316 198.35726929 C37.36851336 202.89699184 42.10432674 206.83595787 47.02458191 210.78305054 C50.29799595 213.50447711 53.40849468 216.35699413 56.51286316 219.26742554 C60.40844156 222.91649179 64.34622664 226.42442647 68.51286316 229.76742554 C74.44656822 234.53527066 80.05300312 239.64367227 85.561203 244.89437866 C86.9694552 246.2263683 88.41266466 247.52109391 89.85661316 248.81430054 C92.26946722 251.55935914 92.69403267 252.67257682 92.63786316 256.26742554 C92.6571991 257.50492554 92.6571991 257.50492554 92.67692566 258.76742554 C91.72312613 262.35820022 89.76326705 263.80103074 87.01286316 266.26742554 C85.95609042 267.27044143 84.90150073 268.27576106 83.84880066 269.28305054 C77.66597284 275.08084425 71.41129385 280.66001772 64.79020691 285.95883179 C61.00435322 289.10572283 57.43580388 292.46364742 53.84635925 295.83065796 C50.52971049 298.92302313 47.13643322 301.8291279 43.57536316 304.64242554 C24.19914096 320.30227129 11.59335558 338.20397861 8.01286316 363.26742554 C8.01286316 391.31742554 8.01286316 419.36742554 8.01286316 448.26742554 C85.23286316 448.26742554 162.45286316 448.26742554 242.01286316 448.26742554 C247.83361855 375.4960498 247.83361855 375.4960498 219.01286316 316.26742554 C218.36317566 315.5777771 217.71348816 314.88812866 217.04411316 314.17758179 C212.65721295 309.63785924 207.92139958 305.6988932 203.00114441 301.75180054 C199.72773037 299.03037397 196.61723163 296.17785695 193.51286316 293.26742554 C189.61728475 289.61835929 185.67949968 286.11042461 181.51286316 282.76742554 C175.5791581 277.99958042 169.9727232 272.89117881 164.46452332 267.64047241 C163.05627111 266.30848277 161.61306166 265.01375716 160.16911316 263.72055054 C157.7562591 260.97549194 157.33169365 259.86227425 157.38786316 256.26742554 C157.37497253 255.44242554 157.36208191 254.61742554 157.34880066 253.76742554 C158.30260019 250.17665085 160.26245927 248.73382033 163.01286316 246.26742554 C164.0696359 245.26440964 165.12422559 244.25909001 166.17692566 243.25180054 C172.35975348 237.45400682 178.61443247 231.87483336 185.23551941 226.57601929 C189.0213731 223.42912824 192.58992244 220.07120365 196.17936707 216.70419312 C199.49601582 213.61182794 202.8892931 210.70572318 206.45036316 207.89242554 C225.82658536 192.23257978 238.43237074 174.33087246 242.01286316 149.26742554 C242.01286316 121.21742554 242.01286316 93.16742554 242.01286316 64.26742554 C164.79286316 64.26742554 87.57286316 64.26742554 8.01286316 64.26742554 Z " fill="#000000" transform="translate(130.9871368408203,-0.267425537109375)"/>
<path d="M0 0 C3.0803696 2.67555717 5.49952014 5.78701781 8 9 C8.83003403 10.04872763 9.66079751 11.09687824 10.4921875 12.14453125 C12.34252264 14.48545203 14.17963528 16.83618305 16.01171875 19.19140625 C19.11971651 23.17265745 22.30487347 27.08855357 25.5 31 C30.00788093 36.52316346 34.44843111 42.09185037 38.8359375 47.7109375 C42.33776247 52.18436708 45.90811164 56.59867202 49.5 61 C54.00628636 66.52178751 58.44726558 72.08752959 62.83154297 77.70654297 C65.82295375 81.53004483 68.86592086 85.30717252 71.94067383 89.06396484 C74.13048526 91.74353987 76.30211988 94.43762896 78.47509766 97.13085938 C79.90389477 98.88219955 81.3600761 100.60633904 82.82421875 102.328125 C87.19921715 107.6852659 90.32932363 111.72767836 89.640625 118.8671875 C88.62664557 122.24299708 86.78308329 123.94581948 84 126 C81.02874725 127.48562637 78.3521599 127.13287786 75.03556824 127.14044189 C74.3105149 127.14341302 73.58546156 127.14638414 72.8384369 127.1494453 C70.39643013 127.1581524 67.95447226 127.15964224 65.51245117 127.16113281 C63.7665954 127.16575958 62.02074065 127.17078405 60.27488708 127.17617798 C55.52275562 127.18931797 50.7706383 127.1957501 46.01849151 127.20018864 C43.05117269 127.2031169 40.08385777 127.20722125 37.11654091 127.21169281 C27.8372643 127.22537221 18.55799654 127.23503659 9.27871054 127.2388947 C-1.44162106 127.24337612 -12.16182521 127.26092603 -22.88211805 127.2898953 C-31.16242543 127.3114961 -39.44269691 127.32159813 -47.72303218 127.32293582 C-52.67127322 127.32398504 -57.61939453 127.32991753 -62.56760597 127.34775543 C-67.2223316 127.36420836 -71.87684712 127.36640516 -76.53159142 127.35761642 C-78.24042192 127.35684455 -79.9492636 127.36120858 -81.6580658 127.37107468 C-83.99050108 127.38375198 -86.3221875 127.37794079 -88.65461731 127.36749268 C-89.96004392 127.36895924 -91.26547052 127.3704258 -92.61045551 127.3719368 C-96.26095102 126.97136568 -98.10851939 126.22213905 -101 124 C-103.41600637 120.37599044 -103.84962643 118.29089784 -103.75 113.98828125 C-102.24171415 107.9787048 -97.63434043 103.49051287 -93.64697266 98.90917969 C-90.85284591 95.67021272 -88.1867386 92.32804253 -85.5 89 C-84.39604778 87.6456585 -83.29188238 86.29149075 -82.1875 84.9375 C-79.2507802 81.32307563 -76.36606319 77.67057215 -73.5 74 C-69.0179989 68.25989332 -64.44043443 62.60306754 -59.8359375 56.9609375 C-56.34469917 52.67548382 -52.90181112 48.35670547 -49.5 44 C-45.02314514 38.26648413 -40.45180567 32.61533907 -35.85131836 26.98071289 C-32.20394599 22.50515899 -28.616847 17.98716217 -25.0625 13.4375 C-24.16448707 12.295239 -23.26607051 11.15329517 -22.3671875 10.01171875 C-20.96692139 8.23019206 -19.57343141 6.4432449 -18.1953125 4.64453125 C-13.18720926 -1.6480337 -7.47087468 -3.84175909 0 0 Z " fill="#000000" transform="translate(263,300)"/>
<path d="M0 0 C0.86862167 -0.0049649 1.73724335 -0.00992981 2.63218689 -0.01504517 C5.50894968 -0.02966315 8.38565732 -0.03646835 11.26245117 -0.04199219 C13.26161195 -0.04774413 15.26077272 -0.05350186 17.25993347 -0.05926514 C21.45389056 -0.06977422 25.64782847 -0.07561743 29.84179688 -0.07910156 C35.21195554 -0.08458474 40.58186047 -0.10860945 45.95193958 -0.13707352 C50.08266435 -0.15571129 54.21332815 -0.16090612 58.34409142 -0.16243744 C60.32360915 -0.16546214 62.30312586 -0.1734845 64.28260231 -0.18662262 C67.05448242 -0.20370608 69.82574463 -0.20179718 72.59765625 -0.1953125 C73.41293793 -0.20452728 74.2282196 -0.21374207 75.06820679 -0.22323608 C79.93732764 -0.18761159 83.27886929 0.45756674 87.49291992 3.16113281 C89.93339163 6.54630324 90.46534251 8.74747163 90.74291992 12.91113281 C88.70053173 23.83816369 72.70364255 35.13649271 65.13500977 42.7043457 C62.7292922 45.11227305 60.33172007 47.52812458 57.93432617 49.94433594 C56.39705484 51.48453779 54.85931125 53.02426846 53.32104492 54.56347656 C52.60950256 55.28220444 51.89796021 56.00093231 51.16485596 56.74143982 C43.09156966 64.77772547 43.09156966 64.77772547 36.68041992 65.72363281 C28.04055967 65.34876401 20.97627737 55.95173515 15.28588867 50.25488281 C14.43867752 49.41195679 13.59146637 48.56903076 12.71858215 47.70056152 C10.94038582 45.92807778 9.16476304 44.1530088 7.39160156 42.37548828 C4.67991251 39.66062481 1.95512327 36.95939972 -0.77075195 34.25878906 C-2.50268181 32.52913107 -4.23382905 30.79868898 -5.96411133 29.06738281 C-6.77660843 28.26409546 -7.58910553 27.46080811 -8.42622375 26.63317871 C-17.07258237 17.91546461 -17.07258237 17.91546461 -17.75708008 12.00097656 C-17.08959505 6.92183268 -15.67781368 4.43813778 -11.50708008 1.16113281 C-7.65564022 -0.12268047 -4.01414999 0.00546324 0 0 Z " fill="#000000" transform="translate(219.507080078125,169.8388671875)"/>
</svg>
